<svg xmlns="http://www.w3.org/2000/svg" viewBox="0 0 1200 630" width="1200" height="630">
  <rect width="600" height="630" fill="#E08A00"/>
  <rect x="600" width="600" height="630" fill="#111"/>
  <rect x="80" y="180" width="140" height="140" fill="#111" opacity="0.2"/>
  <polyline points="96,204 116,256 136,228 156,256 176,204" fill="none" stroke="#111" stroke-width="14" stroke-linejoin="round" stroke-linecap="round"/>
  <line x1="194" y1="202" x2="194" y2="298" stroke="#111" stroke-width="14" stroke-linecap="round"/>
  <line x1="185" y1="202" x2="203" y2="202" stroke="#111" stroke-width="13" stroke-linecap="round"/>
  <line x1="185" y1="298" x2="203" y2="298" stroke="#111" stroke-width="13" stroke-linecap="round"/>
  <text x="80" y="380" font-family="Arial Black, sans-serif" font-weight="900" font-size="72" letter-spacing="-3" fill="#111">WORKED</text>
  <text x="80" y="452" font-family="Arial Black, sans-serif" font-weight="900" font-size="72" letter-spacing="-3" fill="#111">IN</text>
  <text x="80" y="500" font-family="system-ui, sans-serif" font-size="20" fill="#111" opacity="0.6" letter-spacing="3">CLIENT PLATFORM</text>
  <rect x="80" y="540" width="440" height="4" fill="#111" opacity="0.3"/>
  <rect x="680" y="180" width="140" height="140" fill="#7C3AED" opacity="0.3"/>
  <polyline points="696,204 716,256 736,228 756,256 776,204" fill="none" stroke="#7C3AED" stroke-width="14" stroke-linejoin="round" stroke-linecap="round"/>
  <line x1="794" y1="202" x2="794" y2="298" stroke="#7C3AED" stroke-width="14" stroke-linecap="round"/>
  <line x1="785" y1="202" x2="803" y2="202" stroke="#7C3AED" stroke-width="13" stroke-linecap="round"/>
  <line x1="785" y1="298" x2="803" y2="298" stroke="#7C3AED" stroke-width="13" stroke-linecap="round"/>
  <text x="680" y="380" font-family="Arial Black, sans-serif" font-weight="900" font-size="72" letter-spacing="-3" fill="#fff">WORKED</text>
  <text x="680" y="452" font-family="Arial Black, sans-serif" font-weight="900" font-size="72" letter-spacing="-3" fill="#A78BFA">IN</text>
  <text x="680" y="500" font-family="system-ui, sans-serif" font-size="20" fill="#555" letter-spacing="3">FREELANCER PLATFORM</text>
  <rect x="680" y="540" width="440" height="4" fill="#7C3AED" opacity="0.3"/>
</svg>
