<svg xmlns="http://www.w3.org/2000/svg" viewBox="0 0 100 100">
  <defs>
    <linearGradient id="dhmad_bg" x1="0%" y1="0%" x2="100%" y2="100%">
      <stop offset="0%" style="stop-color:#2DD4BF"/>
      <stop offset="100%" style="stop-color:#0D9488"/>
    </linearGradient>
    <linearGradient id="dhmad_shield" x1="0%" y1="0%" x2="100%" y2="100%">
      <stop offset="0%" style="stop-color:#0F766E"/>
      <stop offset="100%" style="stop-color:#134E4A"/>
    </linearGradient>
  </defs>
  <!-- Rounded square bg -->
  <rect width="100" height="100" rx="20" fill="url(#dhmad_bg)"/>
  <!-- Shield body -->
  <path d="M50 12 L25 24 L25 52 C25 68 36 80 50 85 C64 80 75 68 75 52 L75 24 Z" fill="white" opacity="0.25"/>
  <!-- Shield outline -->
  <path d="M50 14 L27 26 L27 52 C27 67 37 78 50 83 C63 78 73 67 73 52 L73 26 Z" fill="none" stroke="white" stroke-width="2.5" opacity="0.8"/>
  <!-- Inner shield / checkmark area -->
  <path d="M50 22 L34 31 L34 51 C34 62 41 70 50 74 C59 70 66 62 66 51 L66 31 Z" fill="white" opacity="0.15"/>
  <!-- Checkmark inside shield -->
  <polyline points="38,51 46,60 62,42" fill="none" stroke="white" stroke-width="4.5" stroke-linecap="round" stroke-linejoin="round"/>
</svg>
